<svg xmlns="http://www.w3.org/2000/svg" viewBox="0 0 365.08 173.52"><defs><style>.character{fill:#fff;stroke:#fff;stroke-miterlimit:10;stroke-width:0;}</style></defs><title>hanja</title><g id="Layer_2" data-name="Layer 2"><g id="Layer_1-2" data-name="Layer 1"><path class="character" d="M13.16,51.92A168.87,168.87,0,0,1,40.41,71.16a2.63,2.63,0,0,1,.83,1.65,5,5,0,0,1-.92,2.12L31.67,86.16c-.92,1.29-1.6,1.94-2,1.94a4.2,4.2,0,0,1-1.75-.93,134.42,134.42,0,0,0-26.6-20.8Q0,65.63,0,64.9a4.58,4.58,0,0,1,1.1-2.12l8.29-9.94c.8-1,1.5-1.47,2.12-1.47A3.64,3.64,0,0,1,13.16,51.92ZM.55,161.65A107.73,107.73,0,0,0,9,147.1a229.87,229.87,0,0,0,16.2-45.84,78.36,78.36,0,0,0,10.4,8.93c2.77,1.78,4.15,3.37,4.15,4.79a21.72,21.72,0,0,1-.74,4.23q-4.61,17.31-15.28,43.17c-1.6,3.5-2.39,6-2.39,7.55,0,2-.65,3-1.94,3a10.14,10.14,0,0,1-4.14-1.47A138.69,138.69,0,0,1,.55,161.65ZM21.26,4.79q12.16,6.9,25.87,19.42a2.18,2.18,0,0,1,1,1.56A5.22,5.22,0,0,1,47,28.17l-8.29,11c-.86,1.11-1.5,1.66-1.93,1.66A3.3,3.3,0,0,1,35.07,40q-13.25-14-26-21.35Q7.82,18,7.82,17.4A5.05,5.05,0,0,1,9,15.28l8.47-9.57c.86-1,1.57-1.57,2.12-1.57A3.79,3.79,0,0,1,21.26,4.79ZM38.48,55.42A105.75,105.75,0,0,0,66.19,14.36,49.68,49.68,0,0,0,69.59,0q9.3,1.29,17.86,3.22c2.27.55,3.41,1.51,3.41,2.86A5,5,0,0,1,89.2,9.3a18.5,18.5,0,0,0-4.33,6.35,60.77,60.77,0,0,1-2.48,5.89h61.86l24.67-.18a3.46,3.46,0,0,1,1.84.27A2.69,2.69,0,0,1,171,23.2V36.82c0,1-.16,1.69-.46,1.93s-.74.28-1.66.28l-24.67-.37H74.1q-3,5.34-7.36,11.51l23.75.37h41.33l23.66-.37a2,2,0,0,1,2.3,2.3q-.65,9.48-.92,16l-.92,21.08,16-.37a3.1,3.1,0,0,1,1.93.37,3.2,3.2,0,0,1,.28,1.66v13.25a2.69,2.69,0,0,1-.33,1.7c-.21.22-.84.33-1.88.33l-2.21-.1q-6.63-.18-15-.27-.56,9-2,24.39l13.53-.37a3.37,3.37,0,0,1,2,.37,3.12,3.12,0,0,1,.28,1.66v12.7c0,.92-.12,1.49-.37,1.71a3.53,3.53,0,0,1-1.93.32l-2.12-.09q-6.16-.2-13.16-.28l-.37,4.14q-1.66,12.62-8,17.95-5.81,4.88-16.84,4.88-7.74,0-10-.18c-1.53-.13-2.48-.49-2.85-1.11a23.66,23.66,0,0,1-1.66-5A45.24,45.24,0,0,0,105.59,155a159.87,159.87,0,0,0,17.67.83q8.56,0,9.48-9.3H69.59q-1.38,6.16-2.48,10.49c-.37,2-1.32,3-2.86,3a52.76,52.76,0,0,1-7.36-1.1,70,70,0,0,1-7.64-1.57c-1.11-.37-1.66-.86-1.66-1.47a6.32,6.32,0,0,1,.46-1.84,118.1,118.1,0,0,0,4.51-14.91q4-16.75,6.63-33-6.72.09-12.24.27l-3.78.1a3,3,0,0,1-1.84-.37,3.26,3.26,0,0,1-.27-1.66V91.23c0-1,.15-1.57.46-1.75s.73-.28,1.65-.28l18.32.37q1.11-7.92,2.58-23.75.56-6,.55-12.61-3.68,5.15-8.84,11.23c-1.65,2-2.91,3-3.77,3s-2-1.08-3.77-3.23A41.92,41.92,0,0,0,38.48,55.42ZM73,130.53H93.89q1.29-8.1,3.23-24.39H77Q75.21,118,73,130.53Zm8.28-64q-.82,11.15-2.3,23H98.77q.74-7.54,1.57-23Zm55.6,39.59H114.79q-1.85,16.29-3,24.39h23Q135.77,122.34,136.88,106.14Zm2-39.59H118l-1.65,23H138Q138.72,73.73,138.91,66.55Z"/><path class="character" d="M202.43,51.92a132.51,132.51,0,0,1,26.88,19.24c.67.61,1,1.13,1,1.56a6,6,0,0,1-1.11,2.4l-8.1,11c-.92,1.29-1.62,1.94-2.11,1.94a2.79,2.79,0,0,1-1.66-.93A135.91,135.91,0,0,0,191.1,66.55c-.8-.49-1.19-1-1.19-1.38a5,5,0,0,1,1.19-2.11l7.37-10.22c.73-1,1.44-1.57,2.11-1.57A4,4,0,0,1,202.43,51.92ZM191.29,162.2a106.92,106.92,0,0,0,8.65-15.47,358.09,358.09,0,0,0,15.46-45.29,63.52,63.52,0,0,0,10.59,9.3c2.76,2,4.14,3.53,4.14,4.7a25.19,25.19,0,0,1-.73,4.14q-7.83,25.41-15.1,42.89-2.3,5.9-2.3,7.55c0,1.78-.74,2.67-2.21,2.67a9.19,9.19,0,0,1-3.59-1.1A121.14,121.14,0,0,1,191.29,162.2ZM211.81,4.6a163.86,163.86,0,0,1,27.25,20.71c.74.74,1.11,1.29,1.11,1.66a4,4,0,0,1-1.2,2.12l-8.65,11c-1,1.11-1.78,1.66-2.21,1.66a2.56,2.56,0,0,1-1.57-.92,165.55,165.55,0,0,0-27.15-21.72q-1.29-.84-1.29-1.29a4.9,4.9,0,0,1,1.29-2.12L208,5.71c1-1.23,1.72-1.84,2.21-1.84A3.05,3.05,0,0,1,211.81,4.6Zm13.08,138.91q26.51-17.58,38.2-48.42H249.92l-16.38.37a2.87,2.87,0,0,1-1.84-.37,3.35,3.35,0,0,1-.28-1.75v-13c0-1.1.15-1.78.46-2s.74-.28,1.66-.28l16.38.37h16.21a11.73,11.73,0,0,0,4.14-.55c.06,0,.55-.12,1.47-.37a4.48,4.48,0,0,1,1.2-.18q2.21,0,7,4.69,5.81,5.43,5.8,7.73a4.24,4.24,0,0,1-2,3.22,13.4,13.4,0,0,0-3.78,6.08q-12.06,34.8-38.11,56.7c-2.14,1.79-3.46,2.67-3.95,2.67q-1.29,0-3.78-4.32A44.54,44.54,0,0,0,224.89,143.51Zm37.46,9.57a112.41,112.41,0,0,0,15.47,1.2q8.83,0,8.83-5.71V59H268L251,59.19c-1.29,0-1.93-.61-1.93-1.84V43.73c0-1.35.64-2,1.93-2l16.94.37h18.68l17.13-.37c1.28,0,1.93.68,1.93,2v6.81A153.14,153.14,0,0,0,314.91,79a241.7,241.7,0,0,0,21.18-24.21,69.92,69.92,0,0,0,5.24-9.11,145,145,0,0,1,14.64,10c1.78,1.41,2.67,2.52,2.67,3.32,0,1.16-.83,2.18-2.49,3Q352.66,64,347.32,70a220.16,220.16,0,0,1-24.49,24.49,120.68,120.68,0,0,0,42.25,42.8q-3.85,4.14-8.46,14.36-2,4-3,4-1.2,0-4-2.49Q317.76,128.51,304.79,88q0,2.67.83,34.25.45,18,.46,30.28,0,11.41-6.45,15.84-6.17,4.32-23.93,4.32c-1.17.06-1.93.09-2.3.09-1.9,0-3.13-.4-3.68-1.19a15,15,0,0,1-1.38-4.51Q266.5,157.87,262.35,153.08ZM277.26,1.75a170.57,170.57,0,0,1,44.93,20.9c.79.55,1.19,1,1.19,1.47a5.67,5.67,0,0,1-1,2.3l-6.81,11.69c-.92,1.35-1.66,2-2.21,2a3.31,3.31,0,0,1-1.56-.65Q293.46,25.6,267.88,17.4c-1.42-.37-2.12-.8-2.12-1.29a6.17,6.17,0,0,1,.92-1.93l6.81-11c.86-1.16,1.66-1.75,2.39-1.75A4.37,4.37,0,0,1,277.26,1.75Z"/></g></g></svg>