<svg xmlns="http://www.w3.org/2000/svg" viewBox="0 0 366.37 174.59"><defs><style>.cls-1{fill:none;stroke:#fff;stroke-miterlimit:10;}</style></defs><title>hanja_2</title><g id="Layer_2" data-name="Layer 2"><g id="Layer_1-2" data-name="Layer 1"><path class="cls-1" d="M13.66,52.49A168.87,168.87,0,0,1,40.91,71.73a2.63,2.63,0,0,1,.83,1.66,5,5,0,0,1-.92,2.11L32.17,86.73c-.92,1.29-1.6,1.94-2,1.94a4.26,4.26,0,0,1-1.75-.92A134.08,134.08,0,0,0,1.79,66.94Q.5,66.21.5,65.47a4.58,4.58,0,0,1,1.1-2.12l8.29-9.94c.8-1,1.5-1.47,2.12-1.47A3.64,3.64,0,0,1,13.66,52.49ZM1.05,162.22a107.12,107.12,0,0,0,8.47-14.55,229.87,229.87,0,0,0,16.2-45.84,78.36,78.36,0,0,0,10.4,8.93c2.77,1.78,4.15,3.37,4.15,4.79a21.72,21.72,0,0,1-.74,4.23Q34.92,137.09,24.25,163c-1.6,3.5-2.39,6-2.39,7.55,0,2-.65,3-1.94,3a10.14,10.14,0,0,1-4.14-1.47A138.69,138.69,0,0,1,1.05,162.22ZM21.76,5.36q12.16,6.9,25.87,19.42a2.2,2.2,0,0,1,1,1.57,5.25,5.25,0,0,1-1.19,2.39L39.16,39.79c-.86,1.1-1.5,1.65-1.93,1.65a3.3,3.3,0,0,1-1.66-.83q-13.25-14-26-21.35Q8.32,18.61,8.32,18a5.05,5.05,0,0,1,1.2-2.12L18,6.28c.86-1,1.57-1.57,2.12-1.57A3.79,3.79,0,0,1,21.76,5.36ZM39,56A105.75,105.75,0,0,0,66.69,14.93,49.6,49.6,0,0,0,70.09.57Q79.39,1.86,88,3.79c2.27.55,3.41,1.51,3.41,2.86A5,5,0,0,1,89.7,9.87a18.5,18.5,0,0,0-4.33,6.35,60.77,60.77,0,0,1-2.48,5.89h61.86l24.67-.18a3.46,3.46,0,0,1,1.84.27,2.69,2.69,0,0,1,.28,1.57V37.39c0,1-.16,1.69-.46,1.94a3,3,0,0,1-1.66.27l-24.67-.37H74.6q-3,5.34-7.36,11.51L91,51.11h41.33L156,50.74a2,2,0,0,1,2.3,2.3q-.65,9.48-.92,16l-.92,21.08,16-.37a3.1,3.1,0,0,1,1.93.37,3.2,3.2,0,0,1,.28,1.66v13.25a2.69,2.69,0,0,1-.33,1.7c-.21.22-.84.33-1.88.33l-2.21-.1q-6.63-.18-15-.27-.56,9-2,24.39l13.53-.37a3.37,3.37,0,0,1,2,.37,3.12,3.12,0,0,1,.28,1.66v12.7c0,.92-.12,1.49-.37,1.71a3.53,3.53,0,0,1-1.93.32l-2.12-.09q-6.16-.19-13.16-.28l-.37,4.14q-1.66,12.62-8,18-5.81,4.88-16.84,4.88-7.74,0-10-.18c-1.53-.13-2.48-.49-2.85-1.11a23.66,23.66,0,0,1-1.66-5,45.24,45.24,0,0,0-5.61-12.24,159.87,159.87,0,0,0,17.67.83q8.56,0,9.48-9.3H70.09q-1.38,6.16-2.48,10.49c-.37,2-1.32,3-2.86,3a52.76,52.76,0,0,1-7.36-1.1A70,70,0,0,1,49.75,158c-1.11-.37-1.66-.86-1.66-1.47a6.32,6.32,0,0,1,.46-1.84,118.1,118.1,0,0,0,4.51-14.91q4-16.75,6.63-33-6.72.09-12.24.27l-3.78.1a3,3,0,0,1-1.84-.37,3.26,3.26,0,0,1-.27-1.66V91.8c0-1,.15-1.57.46-1.75s.73-.28,1.65-.28L62,90.14q1.11-7.92,2.58-23.75.56-6,.55-12.61Q61.45,58.94,56.28,65c-1.65,2-2.91,3-3.77,3s-2-1.08-3.77-3.23A41.92,41.92,0,0,0,39,56ZM73.5,131.1H94.39q1.29-8.1,3.23-24.39H77.46Q75.71,118.58,73.5,131.1Zm8.28-64q-.82,11.13-2.3,23H99.27q.74-7.55,1.57-23Zm55.6,39.58H115.29q-1.85,16.29-3,24.39h23Q136.27,122.91,137.38,106.71Zm2-39.58h-20.9l-1.65,23h21.63Q139.22,74.3,139.41,67.13Z"/><path class="cls-1" d="M202.93,52.49a132.51,132.51,0,0,1,26.88,19.24c.67.61,1,1.13,1,1.56a6,6,0,0,1-1.11,2.4l-8.1,11c-.92,1.29-1.62,1.94-2.11,1.94a2.82,2.82,0,0,1-1.66-.92A135.53,135.53,0,0,0,191.6,67.13c-.8-.49-1.19-1-1.19-1.39a5,5,0,0,1,1.19-2.11L199,53.41c.73-1,1.44-1.57,2.11-1.57A4,4,0,0,1,202.93,52.49ZM191.79,162.77a106.92,106.92,0,0,0,8.65-15.47A358.09,358.09,0,0,0,215.9,102a63.52,63.52,0,0,0,10.59,9.3c2.76,2,4.14,3.53,4.14,4.7a25.19,25.19,0,0,1-.73,4.14q-7.83,25.41-15.1,42.9c-1.53,3.92-2.3,6.44-2.3,7.54,0,1.78-.74,2.67-2.21,2.67a9.19,9.19,0,0,1-3.59-1.1A121.14,121.14,0,0,1,191.79,162.77ZM212.31,5.17a163.36,163.36,0,0,1,27.25,20.72q1.11,1.09,1.11,1.65a4,4,0,0,1-1.2,2.12l-8.65,11c-1,1.11-1.78,1.66-2.21,1.66a2.56,2.56,0,0,1-1.57-.92,165.55,165.55,0,0,0-27.15-21.72q-1.29-.84-1.29-1.29a4.9,4.9,0,0,1,1.29-2.12l8.65-9.94c1-1.23,1.72-1.84,2.21-1.84A3.05,3.05,0,0,1,212.31,5.17Zm13.08,138.91q26.51-17.58,38.2-48.42H250.42L234,96a2.87,2.87,0,0,1-1.84-.37,3.35,3.35,0,0,1-.28-1.75v-13c0-1.1.15-1.78.46-2s.74-.28,1.66-.28l16.38.37h16.21a11.73,11.73,0,0,0,4.14-.55c.06,0,.55-.12,1.47-.37a4.48,4.48,0,0,1,1.2-.18q2.21,0,7,4.69,5.81,5.43,5.8,7.73a4.24,4.24,0,0,1-2,3.22,13.45,13.45,0,0,0-3.78,6.08q-12.06,34.8-38.11,56.71c-2.14,1.78-3.46,2.66-3.95,2.66q-1.29,0-3.78-4.32A44.54,44.54,0,0,0,225.39,144.08Zm37.46,9.58a113.87,113.87,0,0,0,15.47,1.19q8.83,0,8.83-5.7V59.58H268.47l-16.94.18c-1.29,0-1.93-.61-1.93-1.84V44.3c0-1.35.64-2,1.93-2l16.94.37h18.68l17.13-.37c1.28,0,1.93.68,1.93,2v6.81a153.14,153.14,0,0,0,9.2,28.44,240.59,240.59,0,0,0,21.18-24.21,69.92,69.92,0,0,0,5.24-9.11,145,145,0,0,1,14.64,10c1.78,1.42,2.67,2.52,2.67,3.32,0,1.16-.83,2.18-2.49,3q-3.5,1.92-8.83,7.91A220.16,220.16,0,0,1,323.33,95a120.68,120.68,0,0,0,42.25,42.8q-3.85,4.14-8.46,14.36-2,4-3,4-1.2,0-4-2.48-31.86-24.58-44.83-65.09,0,2.67.83,34.25.45,18,.46,30.28,0,11.42-6.45,15.84-6.17,4.32-23.93,4.32c-1.17.06-1.93.1-2.3.1-1.9,0-3.13-.4-3.68-1.2a15,15,0,0,1-1.38-4.51Q267,158.44,262.85,153.66ZM277.76,2.32a170.57,170.57,0,0,1,44.93,20.9c.79.55,1.19,1,1.19,1.47a5.61,5.61,0,0,1-1,2.3l-6.81,11.69c-.92,1.35-1.66,2-2.21,2a3.31,3.31,0,0,1-1.56-.65Q294,26.17,268.38,18c-1.42-.37-2.12-.8-2.12-1.29a6.27,6.27,0,0,1,.92-1.93l6.81-11c.86-1.16,1.66-1.75,2.39-1.75A4.67,4.67,0,0,1,277.76,2.32Z"/></g></g></svg>